<?xml version="1.0" standalone="no"?>
<!DOCTYPE svg PUBLIC "-//W3C//DTD SVG 20010904//EN"
 "http://www.w3.org/TR/2001/REC-SVG-20010904/DTD/svg10.dtd">
<svg version="1.0" xmlns="http://www.w3.org/2000/svg"
 width="96.000000pt" height="96.000000pt" viewBox="0 0 96.000000 96.000000"
 preserveAspectRatio="xMidYMid meet">
<metadata>
Created by potrace 1.11, written by Peter Selinger 2001-2013
</metadata>
<g transform="translate(0.000000,96.000000) scale(0.100000,-0.100000)"
fill="#000000" stroke="none">
<path d="M296 748 c-80 -62 -148 -121 -151 -130 -4 -10 -4 -26 0 -35 3 -10 71
-69 151 -130 191 -147 178 -147 350 -12 166 130 176 139 172 165 -2 15 -52 60
-152 138 -196 152 -177 152 -370 4z"/>
<path d="M150 424 c-24 -29 3 -62 135 -165 149 -115 178 -133 210 -125 35 9
309 224 319 251 12 30 -7 55 -39 55 -14 0 -76 -42 -156 -105 -74 -58 -136
-105 -139 -105 -3 0 -66 47 -140 105 -134 105 -165 120 -190 89z"/>
</g>
</svg>
