<?xml version="1.0" standalone="no"?>
<!DOCTYPE svg PUBLIC "-//W3C//DTD SVG 20010904//EN"
 "http://www.w3.org/TR/2001/REC-SVG-20010904/DTD/svg10.dtd">
<svg version="1.0" xmlns="http://www.w3.org/2000/svg"
 width="260.000000pt" height="260.000000pt" viewBox="0 0 260.000000 260.000000"
 preserveAspectRatio="xMidYMid meet">
<metadata>
Created by potrace 1.11, written by Peter Selinger 2001-2013
</metadata>
<g transform="translate(0.000000,260.000000) scale(0.100000,-0.100000)"
fill="#000000" stroke="none">
<path d="M100 2581 c-19 -10 -48 -35 -65 -55 l-30 -38 -3 -1176 c-2 -1320 -8
-1212 71 -1276 l39 -31 1188 0 1188 0 39 31 c79 64 73 -44 71 1276 l-3 1176
-30 38 c-17 20 -46 45 -65 55 -33 18 -84 19 -1200 19 -1116 0 -1167 -1 -1200
-19z m691 -1176 c70 -126 130 -229 134 -228 5 1 63 104 129 230 l121 228 189
3 c149 2 187 0 183 -10 -3 -7 -107 -184 -231 -393 l-226 -380 0 -282 0 -283
-170 0 -170 0 0 270 0 269 -226 383 c-124 211 -232 393 -240 406 l-15 22 198
-2 197 -3 127 -230z m1557 -297 l-3 -533 -24 -60 c-31 -76 -111 -162 -187
-199 -95 -47 -178 -59 -359 -52 -88 3 -176 9 -195 14 l-35 8 -3 138 -3 139 38
-6 c21 -4 63 -13 93 -22 101 -28 219 -13 274 35 56 49 59 70 63 463 l5 357
-156 0 -156 0 0 125 0 125 325 0 326 0 -3 -532z"/>
</g>
</svg>
