<?xml version="1.0" standalone="no"?>
<!DOCTYPE svg PUBLIC "-//W3C//DTD SVG 20010904//EN"
 "http://www.w3.org/TR/2001/REC-SVG-20010904/DTD/svg10.dtd">
<svg version="1.0" xmlns="http://www.w3.org/2000/svg"
 width="434.000000pt" height="434.000000pt" viewBox="0 0 434.000000 434.000000"
 preserveAspectRatio="xMidYMid meet">
<metadata>
Created by potrace 1.11, written by Peter Selinger 2001-2013
</metadata>
<g transform="translate(0.000000,434.000000) scale(0.100000,-0.100000)"
fill="#000000" stroke="none">
<path d="M1540 3974 c-338 -196 -757 -438 -930 -538 l-315 -181 -3 -1086 -2
-1086 932 -538 c512 -296 937 -538 943 -539 6 -1 433 242 948 539 l937 540 -3
1084 -2 1083 -933 539 c-514 297 -939 539 -945 539 -7 -1 -289 -161 -627 -356z
m871 -540 c311 -52 590 -215 772 -451 25 -33 47 -66 49 -72 2 -7 -100 -72
-226 -145 l-229 -132 -77 77 c-130 133 -303 199 -517 199 -119 0 -214 -19
-301 -60 -183 -85 -301 -219 -368 -415 -22 -65 -28 -103 -31 -205 -6 -158 11
-243 72 -366 118 -240 360 -374 675 -374 284 0 488 107 589 307 11 23 21 47
21 53 0 7 -105 10 -320 10 l-320 0 0 240 0 240 606 0 607 0 -6 -202 c-8 -274
-37 -410 -128 -591 -137 -270 -397 -474 -703 -552 -532 -135 -1096 47 -1400
451 -165 221 -246 468 -246 754 0 270 77 517 225 725 185 260 453 434 770 501
137 28 344 32 486 8z"/>
</g>
</svg>
